<mxfile host="app.diagrams.net" modified="2022-09-28T11:40:30.564Z" agent="5.0 (X11)" etag="DjBWnxb2aaX-rmZnpl7S" version="20.3.3" type="github">
  <diagram id="gSEAx2PzoJvr8fC7rnz5" name="Страница 1">
    <mxGraphModel dx="1343" dy="1523" grid="1" gridSize="10" guides="1" tooltips="1" connect="1" arrows="1" fold="1" page="1" pageScale="1" pageWidth="1169" pageHeight="827" math="0" shadow="0">
      <root>
        <mxCell id="0" />
        <mxCell id="1" parent="0" />
        <mxCell id="dYj86OITE_fqbcDxyzHx-24" style="edgeStyle=orthogonalEdgeStyle;rounded=0;orthogonalLoop=1;jettySize=auto;html=1;fontSize=12;" edge="1" parent="1">
          <mxGeometry relative="1" as="geometry">
            <mxPoint x="600" y="355" as="sourcePoint" />
            <mxPoint x="348" y="355" as="targetPoint" />
            <Array as="points">
              <mxPoint x="560" y="355" />
              <mxPoint x="560" y="355" />
            </Array>
          </mxGeometry>
        </mxCell>
        <mxCell id="dYj86OITE_fqbcDxyzHx-9" style="edgeStyle=orthogonalEdgeStyle;rounded=0;orthogonalLoop=1;jettySize=auto;html=1;entryX=1.018;entryY=0.624;entryDx=0;entryDy=0;entryPerimeter=0;fontSize=12;startArrow=none;" edge="1" parent="1" source="dYj86OITE_fqbcDxyzHx-17" target="dYj86OITE_fqbcDxyzHx-4">
          <mxGeometry relative="1" as="geometry">
            <mxPoint x="994" y="310" as="sourcePoint" />
            <Array as="points" />
          </mxGeometry>
        </mxCell>
        <mxCell id="dYj86OITE_fqbcDxyzHx-1" value="" style="shape=image;html=1;verticalAlign=top;verticalLabelPosition=bottom;labelBackgroundColor=#ffffff;imageAspect=0;aspect=fixed;image=https://cdn4.iconfinder.com/data/icons/thin-line-icons-for-seo-and-development-1/64/seo_programming-128.png;fillStyle=auto;strokeColor=#3399FF;fontSize=12;gradientColor=default;" vertex="1" parent="1">
          <mxGeometry x="930" y="140" width="128" height="128" as="geometry" />
        </mxCell>
        <mxCell id="dYj86OITE_fqbcDxyzHx-2" value="&lt;div style=&quot;font-size: 22px;&quot;&gt;&lt;font style=&quot;font-size: 22px;&quot;&gt;Developer&#39;s code&lt;/font&gt;&lt;/div&gt;" style="text;html=1;align=center;verticalAlign=middle;resizable=0;points=[];autosize=1;strokeColor=none;fillColor=none;fontSize=12;" vertex="1" parent="1">
          <mxGeometry x="898" y="261" width="190" height="40" as="geometry" />
        </mxCell>
        <mxCell id="dYj86OITE_fqbcDxyzHx-3" value="" style="shape=image;html=1;verticalAlign=top;verticalLabelPosition=bottom;labelBackgroundColor=#ffffff;imageAspect=0;aspect=fixed;image=https://cdn4.iconfinder.com/data/icons/socialcones/508/Gitlab-128.png;fillStyle=auto;strokeColor=#3399FF;fontSize=12;gradientColor=default;imageBackground=#B3FF66;" vertex="1" parent="1">
          <mxGeometry x="601" y="-100" width="120" height="120" as="geometry" />
        </mxCell>
        <mxCell id="dYj86OITE_fqbcDxyzHx-20" style="edgeStyle=orthogonalEdgeStyle;rounded=0;orthogonalLoop=1;jettySize=auto;html=1;fontSize=12;startArrow=none;" edge="1" parent="1" source="dYj86OITE_fqbcDxyzHx-27" target="dYj86OITE_fqbcDxyzHx-5">
          <mxGeometry relative="1" as="geometry" />
        </mxCell>
        <mxCell id="dYj86OITE_fqbcDxyzHx-4" value="" style="shape=image;html=1;verticalAlign=top;verticalLabelPosition=bottom;labelBackgroundColor=#ffffff;imageAspect=0;aspect=fixed;image=https://cdn4.iconfinder.com/data/icons/socialcones/508/Gitlab-128.png;fillStyle=auto;strokeColor=#3399FF;fontSize=12;gradientColor=default;imageBackground=#FF0000;" vertex="1" parent="1">
          <mxGeometry x="600" y="280" width="120" height="120" as="geometry" />
        </mxCell>
        <mxCell id="dYj86OITE_fqbcDxyzHx-5" value="&lt;font style=&quot;font-size: 22px;&quot;&gt;Gitlab: main branch&lt;/font&gt;" style="text;html=1;align=center;verticalAlign=middle;resizable=0;points=[];autosize=1;strokeColor=none;fillColor=none;fontSize=12;" vertex="1" parent="1">
          <mxGeometry x="555" y="15" width="210" height="40" as="geometry" />
        </mxCell>
        <mxCell id="dYj86OITE_fqbcDxyzHx-6" value="&lt;font style=&quot;font-size: 23px;&quot;&gt;Gitlab: develop branch&lt;/font&gt;" style="text;html=1;align=center;verticalAlign=middle;resizable=0;points=[];autosize=1;strokeColor=none;fillColor=none;fontSize=12;" vertex="1" parent="1">
          <mxGeometry x="535" y="400" width="250" height="40" as="geometry" />
        </mxCell>
        <mxCell id="dYj86OITE_fqbcDxyzHx-15" value="&lt;font style=&quot;font-size: 22px;&quot;&gt;CD&lt;/font&gt;" style="text;html=1;align=center;verticalAlign=middle;resizable=0;points=[];autosize=1;strokeColor=none;fillColor=none;fontSize=12;" vertex="1" parent="1">
          <mxGeometry x="770" y="221" width="50" height="40" as="geometry" />
        </mxCell>
        <mxCell id="dYj86OITE_fqbcDxyzHx-17" value="&lt;div style=&quot;font-size: 22px;&quot;&gt;&lt;font style=&quot;font-size: 22px;&quot;&gt;git push&lt;/font&gt;&lt;/div&gt;" style="text;html=1;align=center;verticalAlign=middle;resizable=0;points=[];autosize=1;strokeColor=none;fillColor=none;fontSize=12;" vertex="1" parent="1">
          <mxGeometry x="820" y="335" width="100" height="40" as="geometry" />
        </mxCell>
        <mxCell id="dYj86OITE_fqbcDxyzHx-18" value="" style="edgeStyle=orthogonalEdgeStyle;rounded=0;orthogonalLoop=1;jettySize=auto;html=1;entryX=1.018;entryY=0.624;entryDx=0;entryDy=0;entryPerimeter=0;fontSize=12;endArrow=none;" edge="1" parent="1" target="dYj86OITE_fqbcDxyzHx-17">
          <mxGeometry relative="1" as="geometry">
            <mxPoint x="994" y="310.0000000000001" as="sourcePoint" />
            <mxPoint x="724.1600000000001" y="354.8800000000001" as="targetPoint" />
            <Array as="points">
              <mxPoint x="994" y="355" />
            </Array>
          </mxGeometry>
        </mxCell>
        <mxCell id="dYj86OITE_fqbcDxyzHx-21" value="" style="edgeStyle=orthogonalEdgeStyle;rounded=0;orthogonalLoop=1;jettySize=auto;html=1;fontSize=12;endArrow=none;" edge="1" parent="1" source="dYj86OITE_fqbcDxyzHx-4" target="dYj86OITE_fqbcDxyzHx-12">
          <mxGeometry relative="1" as="geometry">
            <mxPoint x="660" y="280" as="sourcePoint" />
            <mxPoint x="660" y="50" as="targetPoint" />
          </mxGeometry>
        </mxCell>
        <mxCell id="dYj86OITE_fqbcDxyzHx-22" value="" style="shape=image;html=1;verticalAlign=top;verticalLabelPosition=bottom;labelBackgroundColor=#ffffff;imageAspect=0;aspect=fixed;image=https://cdn2.iconfinder.com/data/icons/boxicons-logos/24/bxl-heroku-128.png;fillStyle=auto;strokeColor=#3399FF;fontSize=12;gradientColor=default;imageBackground=#FF0000;" vertex="1" parent="1">
          <mxGeometry x="220" y="287" width="128" height="128" as="geometry" />
        </mxCell>
        <mxCell id="dYj86OITE_fqbcDxyzHx-23" value="&lt;div style=&quot;font-size: 22px;&quot;&gt;&lt;font style=&quot;font-size: 22px;&quot;&gt;Heroku develop cluster&lt;/font&gt;&lt;/div&gt;" style="text;html=1;align=center;verticalAlign=middle;resizable=0;points=[];autosize=1;strokeColor=none;fillColor=none;fontSize=12;" vertex="1" parent="1">
          <mxGeometry x="161" y="409" width="250" height="40" as="geometry" />
        </mxCell>
        <mxCell id="dYj86OITE_fqbcDxyzHx-25" value="&lt;font style=&quot;font-size: 22px;&quot;&gt;deploy&lt;/font&gt;" style="text;html=1;align=center;verticalAlign=middle;resizable=0;points=[];autosize=1;fontSize=12;fillColor=#FFFFFF;" vertex="1" parent="1">
          <mxGeometry x="425" y="335" width="90" height="40" as="geometry" />
        </mxCell>
        <mxCell id="dYj86OITE_fqbcDxyzHx-27" value="&lt;div style=&quot;font-size: 22px;&quot;&gt;&lt;font style=&quot;font-size: 22px;&quot;&gt;git push&lt;/font&gt;&lt;/div&gt;" style="text;html=1;align=center;verticalAlign=middle;resizable=0;points=[];autosize=1;strokeColor=none;fillColor=none;fontSize=12;" vertex="1" parent="1">
          <mxGeometry x="610" y="115" width="100" height="40" as="geometry" />
        </mxCell>
        <mxCell id="dYj86OITE_fqbcDxyzHx-28" value="" style="edgeStyle=orthogonalEdgeStyle;rounded=0;orthogonalLoop=1;jettySize=auto;html=1;fontSize=12;startArrow=none;endArrow=none;" edge="1" parent="1" source="dYj86OITE_fqbcDxyzHx-12" target="dYj86OITE_fqbcDxyzHx-27">
          <mxGeometry relative="1" as="geometry">
            <mxPoint x="660" y="190" as="sourcePoint" />
            <mxPoint x="660" y="50" as="targetPoint" />
          </mxGeometry>
        </mxCell>
        <mxCell id="dYj86OITE_fqbcDxyzHx-29" style="edgeStyle=orthogonalEdgeStyle;rounded=0;orthogonalLoop=1;jettySize=auto;html=1;fontSize=12;" edge="1" parent="1">
          <mxGeometry relative="1" as="geometry">
            <mxPoint x="595" y="-60" as="sourcePoint" />
            <mxPoint x="343" y="-60" as="targetPoint" />
            <Array as="points">
              <mxPoint x="555" y="-60" />
              <mxPoint x="555" y="-60" />
            </Array>
          </mxGeometry>
        </mxCell>
        <mxCell id="dYj86OITE_fqbcDxyzHx-31" value="" style="shape=image;html=1;verticalAlign=top;verticalLabelPosition=bottom;labelBackgroundColor=#ffffff;imageAspect=0;aspect=fixed;image=https://cdn2.iconfinder.com/data/icons/boxicons-logos/24/bxl-heroku-128.png;fillStyle=auto;strokeColor=#3399FF;fontSize=12;gradientColor=default;imageBackground=#B3FF66;" vertex="1" parent="1">
          <mxGeometry x="215" y="-113" width="128" height="128" as="geometry" />
        </mxCell>
        <mxCell id="dYj86OITE_fqbcDxyzHx-32" value="&lt;font style=&quot;font-size: 22px;&quot;&gt;deploy&lt;/font&gt;" style="text;html=1;align=center;verticalAlign=middle;resizable=0;points=[];autosize=1;fontSize=12;fillColor=#FFFFFF;" vertex="1" parent="1">
          <mxGeometry x="420" y="-80" width="90" height="40" as="geometry" />
        </mxCell>
        <mxCell id="dYj86OITE_fqbcDxyzHx-33" value="&lt;div style=&quot;font-size: 22px;&quot;&gt;&lt;font style=&quot;font-size: 22px;&quot;&gt;Heroku production cluster&lt;/font&gt;&lt;/div&gt;" style="text;html=1;align=center;verticalAlign=middle;resizable=0;points=[];autosize=1;strokeColor=none;fillColor=none;fontSize=12;" vertex="1" parent="1">
          <mxGeometry x="149" y="8" width="270" height="40" as="geometry" />
        </mxCell>
        <mxCell id="dYj86OITE_fqbcDxyzHx-12" value="" style="shape=mxgraph.electrical.electro-mechanical.pushbutton;aspect=fixed;elSwitchState=on;fillStyle=auto;strokeColor=#3399FF;fontSize=12;gradientColor=default;" vertex="1" parent="1">
          <mxGeometry x="547.5" y="190" width="225" height="60" as="geometry" />
        </mxCell>
        <mxCell id="dYj86OITE_fqbcDxyzHx-14" value="&lt;font style=&quot;font-size: 22px;&quot;&gt;CI&lt;/font&gt;" style="text;html=1;align=center;verticalAlign=middle;resizable=0;points=[];autosize=1;fontSize=12;fillStyle=auto;" vertex="1" parent="1">
          <mxGeometry x="497.5" y="221" width="50" height="40" as="geometry" />
        </mxCell>
        <mxCell id="dYj86OITE_fqbcDxyzHx-16" value="&lt;font style=&quot;font-size: 22px;&quot;&gt;Run tests Job&lt;/font&gt;" style="text;html=1;align=center;verticalAlign=middle;resizable=0;points=[];autosize=1;strokeColor=none;fillColor=none;fontSize=12;" vertex="1" parent="1">
          <mxGeometry x="581" y="185" width="160" height="40" as="geometry" />
        </mxCell>
      </root>
    </mxGraphModel>
  </diagram>
</mxfile>
